<?xml version="1.0" encoding="UTF-8"?>
<svg width="61px" height="78px" viewBox="0 0 61 78" version="1.1" xmlns="http://www.w3.org/2000/svg" xmlns:xlink="http://www.w3.org/1999/xlink">
    <!-- Generator: Sketch 41.2 (35397) - http://www.bohemiancoding.com/sketch -->
    <title>ic_regional contract</title>
    <desc>Created with Sketch.</desc>
    <defs></defs>
    <g id="Main-designs" stroke="none" stroke-width="1" fill="none" fill-rule="evenodd">
        <g id="First-time-contract-setup-page-Copy" transform="translate(-278.000000, -758.000000)">
            <g id="Group" transform="translate(250.000000, 460.000000)">
                <g id="Regional_contract_card" transform="translate(0.000000, 280.000000)">
                    <g id="ic_county-contract" transform="translate(28.571429, 18.000000)">
                        <g id="Group" stroke-width="1" fill-rule="evenodd" fill="#4A4A4A">
                            <path d="M1.59926471,0.31741618 C0.689813676,0.402551486 -0.00393884023,1.16291069 -1.2552704e-12,2.07022517 L-1.2552704e-12,75.6882027 C9.74433611e-05,76.6562123 0.790126101,77.4409149 1.76470588,77.4410117 L37.0588235,77.4410117 C37.5254197,77.4372975 37.9715475,77.2502023 38.2996324,76.9206465 L59.4761029,55.8869387 C59.8078955,55.5610656 59.9962606,55.1179454 60,54.6544948 L60,2.07022517 C59.9999026,1.10221559 59.2098739,0.317512966 58.2352941,0.31741618 L1.76470588,0.31741618 C1.70958914,0.314847434 1.65438144,0.314847434 1.59926471,0.31741618 L1.59926471,0.31741618 Z M56.4705882,3.82303416 L56.4705882,52.9016858 L37.0588235,52.9016858 C37.0037068,52.8991171 36.9484991,52.8991171 36.8933824,52.9016858 C35.9839312,52.986821 35.2901786,53.7471803 35.2941176,54.6544948 L35.2941176,73.9353937 L3.52941176,73.9353937 L3.52941176,3.82303416 L56.4705882,3.82303416 Z M38.8235294,56.4073038 L53.9613971,56.4073038 L38.8235294,71.4431184 L38.8235294,56.4073038 L38.8235294,56.4073038 Z" id="Shape"></path>
                        </g>
                        <path d="M3,3 L57,3 L57,53.7142857 L35.6037736,53.7142857 L35.6037736,74 L18.2830189,74 L3,74 L3,3 Z" id="Rectangle" fill="#FFC107" fill-rule="evenodd"></path>
                        <text id="C" font-family="AvenirNext-Bold, Avenir Next" font-size="36" font-weight="bold" fill="#4A4A4A">
                            <tspan x="16" y="43">C</tspan>
                        </text>
                    </g>
                </g>
            </g>
        </g>
    </g>
</svg>