<svg version="1.1" xmlns="http://www.w3.org/2000/svg" xmlns:xlink="http://www.w3.org/1999/xlink" x="0px" y="0px" viewBox="0 0 48 48" style="enable-background:new 0 0 48 48;" xml:space="preserve" width="528" height="528">
<path style="fill:#FFB74D;" d="M38,26l-9.049-8.756C28.463,17,27.731,17,27,17H16v0.058c-0.506,0.103-0.986,0.356-1.358,0.768l-9,10
	c-0.924,1.026-0.84,2.607,0.186,3.531C6.306,31.788,6.903,32,7.499,32c0.685,0,1.365-0.279,1.859-0.827L17,23v9h11v8h15V26H38z"/>
<g>
	<path style="fill:#E69329;" d="M27,30h-5v8.5c0,1.381,1.119,2.5,2.5,2.5c1.381,0,2.5-1.119,2.5-2.5V30z"/>
	<path style="fill:#E69329;" d="M22,29h-5v8.5c0,1.381,1.119,2.5,2.5,2.5c1.381,0,2.5-1.119,2.5-2.5V29z"/>
	<path style="fill:#E69329;" d="M17,28h-5v7.5c0,1.381,1.119,2.5,2.5,2.5c1.381,0,2.5-1.119,2.5-2.5V28z"/>
</g>
<path style="fill:#455A64;" d="M7.601,39.151l-1.513-1.308l-1.309,1.515c-0.361,0.418-0.315,1.049,0.103,1.41h0
	c0.418,0.361,1.049,0.314,1.41-0.103L7.601,39.151z"/>
<path style="fill:#90A4AE;" d="M30.59,8.413l-0.818-0.696c-1.257-1.07-3.143-0.926-4.222,0.324L19,15.621l1.513,1.306l6.538-7.566
	c0.372-0.43,1.022-0.478,1.453-0.106l0.778,0.672L30.59,8.413z"/>
<path style="fill:#33691E;" d="M33.961,7.731c-1.255-1.084-3.148-0.946-4.23,0.307L19.538,19.361l4.541,3.923L34.27,11.96
	C35.353,10.707,35.215,8.814,33.961,7.731z"/>
<path style="fill:#4CAF50;" d="M7.279,39.526c1.844-0.557,5.301-3.076,6.091-3.99l10.055-11.495l-4.541-3.923L8.83,31.614
	c-0.79,0.913-2.78,4.7-3.063,6.604L7.279,39.526z"/>
<rect x="18.155" y="21.078" transform="matrix(0.7568 0.6537 -0.6537 0.7568 19.5779 -8.4578)" style="fill:#FFFF00;" width="5.999" height="2.002"/>
<path style="fill:#FFB74D;" d="M10.133,32.108L10.133,32.108c-0.528,1.661,0.586,3.105,2.026,3.658l10.676,3.055
	c0.72,0.279,4.202,1.864,6.706,0.887c2.795-1.09,5.2-3.385,5.2-3.385L28,28l-5.364,3.011L14.5,30.125
	C12.205,29.746,10.699,30.424,10.133,32.108"/>
<path style="fill:#FFCDD2;" d="M12.067,34.459c-0.911-0.41-1.317-1.48-0.908-2.392c0.411-0.911,1.482-1.318,2.393-0.906
	C14.463,31.569,12.979,34.869,12.067,34.459"/>
<polygon style="fill:#E69329;" points="22.77,24.798 22.766,24.794 17.79,30.483 22.636,31.011 28,28 26,24.011 24.23,23.116 
	24.079,23.284 23.424,24.042 23.424,24.042 23.396,24.074 "/>
</svg>