<svg version="1.1" xmlns="http://www.w3.org/2000/svg" xmlns:xlink="http://www.w3.org/1999/xlink" x="0px" y="0px" viewBox="0 0 48 48" style="enable-background:new 0 0 48 48;" xml:space="preserve" width="48" height="48">
<path style="fill:#546E7A;" d="M30,45h-3h-3h-3h-3c0,0-8-9.875-8-22c0-10.554,5.544-11.923,5.78-11.976L16,11l16.22,0.024
	C32.456,11.077,38,12.446,38,23C38,35.063,30,45,30,45z"/>
<path style="fill:none;stroke:#FFC107;stroke-width:2;stroke-miterlimit:10;" d="M27,39v5 M21,44v-5 M29,46l-2-2l-2,2 M23,46
	c0,0-2-2-2-2l-2,2"/>
<path style="fill:#CFD8DC;" d="M35,25c0-5.325-2.369-7.784-3-8H16c-0.399,0.399-3,3.17-3,9c0,6.714,2.297,11.564,5,16l1-1l5-7l5,7
	l1,1C32.737,37.531,35,31.71,35,25z"/>
<path style="fill:#78909C;" d="M16,17c0,0-1,2.063-1,7c0,6.063,4,17,4,17l2-2l1,2h4l1-2l2,2c0,0,4-10.938,4-17c0-4.938-1-7-1-7L24,4
	L16,17z"/>
<path style="fill:#37474F;" d="M26,22l-2,3l-2-3H26z M17,22l2,3l2-3H17z M27,22l2,3l2-3H27z M19,26l2,3l2-3H19z M25,26l2,3l2-3H25z
	 M22,30l2,3l2-3H22z"/>
<path style="fill:#607D8B;" d="M24,20.713l-0.812-1.129c-3.158-4.391-7.354-5.397-7.406-5.409L15,14v-2.801C15,6.727,17.435,2,24,2
	s9,4.729,9,9.202V14l-0.78,0.178c-0.052,0.012-4.267,1.038-7.408,5.406L24,20.713z"/>
<path style="fill:#B0BEC5;" d="M24,20.713l-0.812-1.129c-3.158-4.391-7.354-5.397-7.406-5.409L15,14v-2.801
	c0-1.8,0.394-3.642,1.294-5.199C17.629,3.687,20.077,8,24,8c3.924,0,6.372-4.311,7.707-1.996C32.606,7.561,33,9.403,33,11.202V14
	l-0.78,0.178c-0.052,0.012-4.267,1.038-7.408,5.406L24,20.713z"/>
<path style="fill:#37474F;" d="M32.87,3c-0.005-0.014-1.236,2-3,2c0,0-0.001,0-0.001,0c-3.275,0-5.007,1.11-5.934,2.283
	C23.008,6.11,21.275,5,18,5c-1.764,0-2.995-2.014-3-2c-0.403,1.159,0.184,2.48,1.154,3.277c-0.531,1.007-0.862,2.117-1.023,3.254
	C15.6,11.515,17.375,13,19.5,13c1.951,0,3.6-1.256,4.222-2.996l0.557,0.004C24.902,11.746,26.55,13,28.5,13
	c2.125,0,3.9-1.485,4.369-3.468c-0.165-1.162-0.505-2.297-1.058-3.322C32.728,5.406,33.261,4.123,32.87,3z"/>
<path style="fill:#FFC107;" d="M24,8c-0.485,0-1,1.142-1,2s1,3,1,3s1-2.11,1-3S24.485,8,24,8z"/>
<path style="fill:#FFEA00;" d="M31,6.721c0,0.553,0,0.744,0,1.779c0,1.381-1.119,2.5-2.5,2.5S26,9.881,26,8.5
	c0-0.182,0.022-0.358,0.059-0.529C26.788,7.433,27.961,7,29.871,7C30.262,7,30.641,6.887,31,6.721z M17,6.721
	c0,0.553,0,0.744,0,1.779c0,1.381,1.119,2.5,2.5,2.5S22,9.881,22,8.5c0-0.182-0.022-0.358-0.059-0.529
	C21.212,7.433,20.039,7,18.129,7C17.738,7,17.359,6.887,17,6.721z"/>
<path style="fill:#212121;" d="M28,9c-0.552,0-1-0.448-1-1c0-0.24,0.096-0.451,0.236-0.623c0.343-0.117,0.735-0.211,1.185-0.277
	C28.761,7.26,29,7.6,29,8C29,8.552,28.552,9,28,9z M20,9c0.552,0,1-0.448,1-1c0-0.24-0.096-0.451-0.236-0.623
	C20.421,7.26,20.029,7.166,19.578,7.1C19.239,7.26,19,7.6,19,8C19,8.552,19.448,9,20,9z"/>
</svg>