<?xml version="1.0" standalone="no"?>
<!DOCTYPE svg PUBLIC "-//W3C//DTD SVG 20010904//EN"
 "http://www.w3.org/TR/2001/REC-SVG-20010904/DTD/svg10.dtd">
<svg version="1.0" xmlns="http://www.w3.org/2000/svg"
 width="700.000000pt" height="700.000000pt" viewBox="0 0 700.000000 700.000000"
 preserveAspectRatio="xMidYMid meet">
<metadata>
Created by potrace 1.11, written by Peter Selinger 2001-2013
</metadata>
<g transform="translate(0.000000,700.000000) scale(0.100000,-0.100000)"
fill="#000000" stroke="none">
<path d="M3368 6705 c-2 -1 -32 -6 -68 -9 -36 -4 -96 -14 -135 -22 -38 -8 -80
-17 -92 -20 -38 -8 -179 -62 -235 -90 -89 -45 -196 -122 -270 -195 -39 -38
-75 -69 -81 -69 -42 0 -232 159 -276 231 l-20 33 -10 -25 c-16 -42 -6 -178 18
-239 22 -54 105 -180 119 -180 4 0 13 -9 20 -20 10 -16 7 -29 -17 -82 -81
-175 -128 -384 -132 -586 l-2 -82 -54 -31 c-217 -124 -406 -370 -517 -671 -33
-89 -80 -250 -91 -313 -24 -130 -35 -198 -40 -245 -3 -30 -9 -91 -14 -135 -9
-82 -7 -630 2 -675 3 -14 8 -52 11 -85 12 -113 33 -259 51 -350 4 -16 8 -39
10 -50 1 -11 13 -60 25 -110 12 -49 23 -99 26 -110 3 -17 58 -219 67 -250 42
-139 156 -458 197 -550 9 -22 39 -89 66 -150 138 -316 365 -718 570 -1010 127
-181 123 -177 172 -178 l42 -1 -20 -21 -21 -22 103 -102 103 -101 94 94 93 93
95 -94 95 -94 99 98 c90 89 115 123 90 123 -5 0 -11 6 -14 14 -5 12 8 14 69
13 76 -1 84 -5 60 -29 -11 -12 3 -30 89 -117 l102 -103 91 91 c51 50 95 91 99
91 4 0 48 -40 98 -90 l90 -90 103 102 102 102 -21 22 -21 22 41 -2 c41 -3 43
-1 94 68 193 259 372 554 537 885 50 100 90 183 90 185 0 3 13 33 29 68 127
280 280 719 326 938 2 8 10 42 19 75 8 33 26 121 40 195 25 136 29 164 41 255
4 28 9 61 11 75 19 119 26 679 10 805 -4 33 -9 83 -12 110 -18 166 -72 400
-129 553 -114 304 -301 547 -519 671 l-54 31 -1 78 c-4 200 -53 419 -134 595
l-34 73 41 45 c48 53 91 129 111 194 14 49 16 197 2 211 -4 5 -20 -7 -34 -26
-34 -45 -150 -157 -179 -173 -12 -7 -35 -20 -51 -29 l-30 -17 -73 70 c-173
166 -405 278 -650 314 -25 4 -56 9 -70 11 -28 5 -338 13 -342 9z"/>
</g>
</svg>
